<svg xmlns="http://www.w3.org/2000/svg" width="1000" height="700" viewBox="0 0 1000 700" role="img" aria-labelledby="title desc">
  <title id="title">Down the cliff riddle diagram</title>
  <desc id="desc">A 100 meter cliff with a tree at the top, a branch 50 meters below, and a 75 meter rope with knife shown as available equipment.</desc>
  <defs>
    <linearGradient id="sky" x1="0" y1="0" x2="0" y2="1">
      <stop offset="0%" stop-color="#dff4ff"/>
      <stop offset="100%" stop-color="#f8fbff"/>
    </linearGradient>
    <linearGradient id="rock" x1="0" y1="0" x2="1" y2="1">
      <stop offset="0%" stop-color="#8b735c"/>
      <stop offset="100%" stop-color="#5e4b3d"/>
    </linearGradient>
    <marker id="arrow" viewBox="0 0 10 10" refX="5" refY="5" markerWidth="7" markerHeight="7" orient="auto-start-reverse">
      <path d="M 0 0 L 10 5 L 0 10 z" fill="#1f2937"/>
    </marker>
    <marker id="redArrow" viewBox="0 0 10 10" refX="5" refY="5" markerWidth="7" markerHeight="7" orient="auto-start-reverse">
      <path d="M 0 0 L 10 5 L 0 10 z" fill="#dc2626"/>
    </marker>
    <filter id="shadow" x="-20%" y="-20%" width="140%" height="140%">
      <feDropShadow dx="0" dy="3" stdDeviation="4" flood-color="#000" flood-opacity="0.22"/>
    </filter>
    <style>
      .label { font: 700 24px Arial, sans-serif; fill: #111827; }
      .small { font: 600 18px Arial, sans-serif; fill: #111827; }
      .note { font: 600 16px Arial, sans-serif; fill: #374151; }
      .measure { stroke: #1f2937; stroke-width: 3; marker-start: url(#arrow); marker-end: url(#arrow); }
      .measure-red { stroke: #dc2626; stroke-width: 3; marker-start: url(#redArrow); marker-end: url(#redArrow); }
      .dash { stroke-dasharray: 8 7; }
      .rope { fill: none; stroke: #d97706; stroke-width: 6; stroke-linecap: round; }
      .rope-thin { fill: none; stroke: #f59e0b; stroke-width: 4; stroke-linecap: round; stroke-dasharray: 10 7; }
    </style>
  </defs>

  <!-- Background -->
  <rect width="1000" height="700" fill="url(#sky)"/>
  <rect x="0" y="620" width="1000" height="80" fill="#86a873"/>

  <!-- Cliff -->
  <path d="M 545 95 C 520 180 560 255 530 340 C 505 415 545 500 510 620 L 820 620 L 820 95 Z" fill="url(#rock)" filter="url(#shadow)"/>
  <path d="M 545 95 C 520 180 560 255 530 340 C 505 415 545 500 510 620" fill="none" stroke="#3f342b" stroke-width="5"/>
  <path d="M 545 95 L 820 95 L 820 70 L 500 70 C 492 88 512 101 545 95 Z" fill="#7fb069"/>

  <!-- Rock texture -->
  <path d="M610 145 L690 190 M565 250 L720 310 M585 420 L685 470 M630 520 L780 575" stroke="#705a48" stroke-width="3" opacity="0.5"/>
  <path d="M720 130 L680 235 M610 330 L660 420 M755 385 L715 540" stroke="#4d3f35" stroke-width="2" opacity="0.35"/>

  <!-- Tree -->
  <rect x="622" y="25" width="28" height="75" rx="10" fill="#7c4a25"/>
  <circle cx="608" cy="30" r="42" fill="#2f855a"/>
  <circle cx="655" cy="24" r="48" fill="#38a169"/>
  <circle cx="690" cy="48" r="38" fill="#2f855a"/>
  <text x="700" y="55" class="small">tree</text>

  <!-- Person at top -->
  <circle cx="475" cy="66" r="13" fill="#f2c6a0" stroke="#111827" stroke-width="2"/>
  <line x1="475" y1="80" x2="475" y2="126" stroke="#1f2937" stroke-width="5" stroke-linecap="round"/>
  <line x1="475" y1="92" x2="445" y2="112" stroke="#1f2937" stroke-width="5" stroke-linecap="round"/>
  <line x1="475" y1="92" x2="505" y2="112" stroke="#1f2937" stroke-width="5" stroke-linecap="round"/>
  <line x1="475" y1="126" x2="452" y2="160" stroke="#1f2937" stroke-width="5" stroke-linecap="round"/>
  <line x1="475" y1="126" x2="497" y2="160" stroke="#1f2937" stroke-width="5" stroke-linecap="round"/>
  <text x="338" y="52" class="small">you start here</text>

  <!-- Branch halfway -->
  <path d="M 528 355 C 470 340 425 345 372 365" fill="none" stroke="#6b3f20" stroke-width="16" stroke-linecap="round"/>
  <path d="M 425 352 C 405 333 386 324 362 316" fill="none" stroke="#6b3f20" stroke-width="8" stroke-linecap="round"/>
  <ellipse cx="371" cy="366" rx="38" ry="13" fill="#4b2e17" opacity="0.25"/>
  <text x="225" y="348" class="small">branch, 50 m below top</text>

  <!-- Planned rope path hint -->
  <path d="M 636 98 C 615 145 595 188 575 235" class="rope-thin"/>
  <circle cx="574" cy="242" r="13" fill="none" stroke="#d97706" stroke-width="5"/>
  <path d="M 574 244 C 515 275 468 314 405 365" class="rope-thin"/>
  <path d="M 574 244 C 535 285 492 324 405 365" class="rope-thin" opacity="0.75"/>
  <text x="610" y="230" class="note" fill="#92400e">25 m rope to loop</text>
  <text x="215" y="415" class="note" fill="#92400e">50 m rope doubled through loop</text>

  <!-- Equipment: rope and knife -->
  <g transform="translate(70 90)" filter="url(#shadow)">
    <rect x="0" y="0" width="250" height="128" rx="18" fill="#ffffff" stroke="#d1d5db" stroke-width="2"/>
    <text x="20" y="34" class="small">equipment</text>
    <path d="M35 78 C 70 42, 130 42, 160 78 C 130 112, 70 112, 35 78 Z" class="rope"/>
    <path d="M170 92 L222 52" stroke="#6b7280" stroke-width="8" stroke-linecap="round"/>
    <path d="M215 45 L232 35 L228 58 Z" fill="#cbd5e1" stroke="#4b5563" stroke-width="2"/>
    <text x="26" y="118" class="note">75 m rope + knife</text>
  </g>

  <!-- Measurement annotations -->
  <line x1="890" y1="95" x2="890" y2="620" class="measure"/>
  <line x1="835" y1="95" x2="925" y2="95" stroke="#1f2937" stroke-width="2"/>
  <line x1="835" y1="620" x2="925" y2="620" stroke="#1f2937" stroke-width="2"/>
  <rect x="835" y="332" width="125" height="42" rx="10" fill="#ffffff" stroke="#1f2937" stroke-width="2"/>
  <text x="855" y="360" class="label">100 m</text>

  <line x1="790" y1="95" x2="790" y2="360" class="measure-red"/>
  <line x1="760" y1="360" x2="830" y2="360" stroke="#dc2626" stroke-width="2"/>
  <rect x="730" y="207" width="112" height="40" rx="10" fill="#fff7ed" stroke="#dc2626" stroke-width="2"/>
  <text x="750" y="234" class="label" fill="#991b1b">50 m</text>

  <line x1="545" y1="95" x2="820" y2="95" stroke="#111827" stroke-width="2" stroke-dasharray="5 6" opacity="0.6"/>
  <line x1="528" y1="360" x2="820" y2="360" stroke="#dc2626" stroke-width="2" stroke-dasharray="5 6" opacity="0.45"/>
  <line x1="510" y1="620" x2="820" y2="620" stroke="#111827" stroke-width="2" stroke-dasharray="5 6" opacity="0.6"/>

  <!-- Caption -->
  <rect x="55" y="560" width="430" height="88" rx="16" fill="#ffffff" stroke="#d1d5db" stroke-width="2" filter="url(#shadow)"/>
  <text x="78" y="592" class="small">Goal</text>
  <text x="78" y="620" class="note">Use only the 75 m rope and knife to descend</text>
  <text x="78" y="642" class="note">from the top to the bottom of the 100 m cliff.</text>
</svg>
