<svg xmlns="http://www.w3.org/2000/svg" width="1000" height="700" viewBox="0 0 1000 700" role="img" aria-labelledby="title desc">
  <title id="title">Down the cliff riddle setup</title>
  <desc id="desc">Question-only illustration: a 100 meter cliff, a tree at the top, a branch 50 meters below, and the available 75 meter rope and knife.</desc>
  <defs>
    <linearGradient id="sky" x1="0" y1="0" x2="0" y2="1">
      <stop offset="0%" stop-color="#dff4ff"/>
      <stop offset="100%" stop-color="#ffffff"/>
    </linearGradient>
    <linearGradient id="cliff" x1="0" y1="0" x2="1" y2="1">
      <stop offset="0%" stop-color="#a9896d"/>
      <stop offset="100%" stop-color="#5b4638"/>
    </linearGradient>
    <marker id="arrow" viewBox="0 0 10 10" refX="5" refY="5" markerWidth="7" markerHeight="7" orient="auto-start-reverse">
      <path d="M 0 0 L 10 5 L 0 10 z" fill="#111827"/>
    </marker>
    <marker id="redArrow" viewBox="0 0 10 10" refX="5" refY="5" markerWidth="7" markerHeight="7" orient="auto-start-reverse">
      <path d="M 0 0 L 10 5 L 0 10 z" fill="#dc2626"/>
    </marker>
    <filter id="shadow" x="-20%" y="-20%" width="140%" height="140%">
      <feDropShadow dx="0" dy="3" stdDeviation="4" flood-color="#000" flood-opacity="0.22"/>
    </filter>
    <style>
      .label { font: 700 24px Arial, sans-serif; fill: #111827; }
      .small { font: 700 18px Arial, sans-serif; fill: #111827; }
      .note { font: 600 16px Arial, sans-serif; fill: #374151; }
      .measure { stroke: #111827; stroke-width: 3; marker-start: url(#arrow); marker-end: url(#arrow); }
      .measure-red { stroke: #dc2626; stroke-width: 3; marker-start: url(#redArrow); marker-end: url(#redArrow); }
    </style>
  </defs>

  <rect width="1000" height="700" fill="url(#sky)"/>
  <circle cx="140" cy="105" r="42" fill="#fde68a" opacity="0.9"/>
  <rect x="0" y="620" width="1000" height="80" fill="#8fbc7a"/>

  <!-- Cliff face -->
  <path d="M 545 95 C 520 180 560 255 530 340 C 505 415 545 500 510 620 L 820 620 L 820 95 Z" fill="url(#cliff)" filter="url(#shadow)"/>
  <path d="M 545 95 C 520 180 560 255 530 340 C 505 415 545 500 510 620" fill="none" stroke="#3f342b" stroke-width="5"/>
  <path d="M 545 95 L 820 95 L 820 70 L 500 70 C 492 88 512 101 545 95 Z" fill="#7fb069"/>
  <path d="M610 145 L690 190 M565 250 L720 310 M585 420 L685 470 M630 520 L780 575" stroke="#705a48" stroke-width="3" opacity="0.5"/>
  <path d="M720 130 L680 235 M610 330 L660 420 M755 385 L715 540" stroke="#4d3f35" stroke-width="2" opacity="0.35"/>

  <!-- Tree at the top -->
  <rect x="622" y="25" width="28" height="75" rx="10" fill="#7c4a25"/>
  <circle cx="608" cy="30" r="42" fill="#2f855a"/>
  <circle cx="655" cy="24" r="48" fill="#38a169"/>
  <circle cx="690" cy="48" r="38" fill="#2f855a"/>
  <rect x="698" y="38" width="70" height="32" rx="10" fill="#ffffff" stroke="#d1d5db"/>
  <text x="714" y="60" class="small">tree</text>

  <!-- Person -->
  <circle cx="475" cy="66" r="13" fill="#f2c6a0" stroke="#111827" stroke-width="2"/>
  <line x1="475" y1="80" x2="475" y2="126" stroke="#1f2937" stroke-width="5" stroke-linecap="round"/>
  <line x1="475" y1="92" x2="445" y2="112" stroke="#1f2937" stroke-width="5" stroke-linecap="round"/>
  <line x1="475" y1="92" x2="505" y2="112" stroke="#1f2937" stroke-width="5" stroke-linecap="round"/>
  <line x1="475" y1="126" x2="452" y2="160" stroke="#1f2937" stroke-width="5" stroke-linecap="round"/>
  <line x1="475" y1="126" x2="497" y2="160" stroke="#1f2937" stroke-width="5" stroke-linecap="round"/>
  <rect x="324" y="25" width="130" height="34" rx="10" fill="#ffffff" stroke="#d1d5db"/>
  <text x="340" y="48" class="small">you start here</text>

  <!-- Branch halfway down -->
  <path d="M 528 355 C 470 340 425 345 372 365" fill="none" stroke="#6b3f20" stroke-width="16" stroke-linecap="round"/>
  <path d="M 425 352 C 405 333 386 324 362 316" fill="none" stroke="#6b3f20" stroke-width="8" stroke-linecap="round"/>
  <ellipse cx="371" cy="366" rx="38" ry="13" fill="#4b2e17" opacity="0.25"/>
  <rect x="208" y="320" width="232" height="36" rx="10" fill="#ffffff" stroke="#d1d5db"/>
  <text x="225" y="344" class="small">branch, 50 m below top</text>

  <!-- Equipment only: no solution path -->
  <g transform="translate(70 90)" filter="url(#shadow)">
    <rect x="0" y="0" width="250" height="128" rx="18" fill="#ffffff" stroke="#d1d5db" stroke-width="2"/>
    <text x="20" y="34" class="small">equipment</text>
    <path d="M35 78 C 70 42, 130 42, 160 78 C 130 112, 70 112, 35 78 Z" fill="none" stroke="#d97706" stroke-width="6" stroke-linecap="round"/>
    <path d="M170 92 L222 52" stroke="#6b7280" stroke-width="8" stroke-linecap="round"/>
    <path d="M215 45 L232 35 L228 58 Z" fill="#cbd5e1" stroke="#4b5563" stroke-width="2"/>
    <text x="26" y="118" class="note">75 m rope + knife</text>
  </g>

  <!-- Measurement annotations -->
  <line x1="890" y1="95" x2="890" y2="620" class="measure"/>
  <line x1="835" y1="95" x2="925" y2="95" stroke="#111827" stroke-width="2"/>
  <line x1="835" y1="620" x2="925" y2="620" stroke="#111827" stroke-width="2"/>
  <rect x="835" y="332" width="125" height="42" rx="10" fill="#ffffff" stroke="#111827" stroke-width="2"/>
  <text x="855" y="360" class="label">100 m</text>

  <line x1="790" y1="95" x2="790" y2="360" class="measure-red"/>
  <line x1="760" y1="360" x2="830" y2="360" stroke="#dc2626" stroke-width="2"/>
  <rect x="730" y="207" width="112" height="40" rx="10" fill="#fff7ed" stroke="#dc2626" stroke-width="2"/>
  <text x="750" y="234" class="label" fill="#991b1b">50 m</text>

  <line x1="545" y1="95" x2="820" y2="95" stroke="#111827" stroke-width="2" stroke-dasharray="5 6" opacity="0.6"/>
  <line x1="528" y1="360" x2="820" y2="360" stroke="#dc2626" stroke-width="2" stroke-dasharray="5 6" opacity="0.45"/>
  <line x1="510" y1="620" x2="820" y2="620" stroke="#111827" stroke-width="2" stroke-dasharray="5 6" opacity="0.6"/>

  <rect x="55" y="560" width="430" height="88" rx="16" fill="#ffffff" stroke="#d1d5db" stroke-width="2" filter="url(#shadow)"/>
  <text x="78" y="592" class="small">Question setup</text>
  <text x="78" y="620" class="note">Get from the top to the bottom using only</text>
  <text x="78" y="642" class="note">the 75 m rope and the knife.</text>
</svg>
