<svg xmlns="http://www.w3.org/2000/svg" width="1280" height="900" viewBox="0 0 1280 900" role="img" aria-labelledby="title desc">
  <title id="title">Down the cliff riddle setup</title>
  <desc id="desc">Illustration of a 100 meter cliff with a start point at top, a branch 50 meters below, and a 75 meter rope with a knife.</desc>
  <defs>
    <linearGradient id="sky" x1="0" y1="0" x2="0" y2="1">
      <stop offset="0" stop-color="#dcecf9"/>
      <stop offset="1" stop-color="#f8fbfd"/>
    </linearGradient>
    <linearGradient id="rock" x1="0" y1="0" x2="1" y2="0">
      <stop offset="0" stop-color="#9c7c56"/>
      <stop offset="0.55" stop-color="#c2a077"/>
      <stop offset="1" stop-color="#d8ba90"/>
    </linearGradient>
    <linearGradient id="grass" x1="0" y1="0" x2="0" y2="1">
      <stop offset="0" stop-color="#8fbf58"/>
      <stop offset="1" stop-color="#6a9a3d"/>
    </linearGradient>
    <radialGradient id="foliage" cx="0.35" cy="0.3" r="0.8">
      <stop offset="0" stop-color="#4b9a4f"/>
      <stop offset="1" stop-color="#2c703a"/>
    </radialGradient>
    <linearGradient id="wood" x1="0" y1="0" x2="0" y2="1">
      <stop offset="0" stop-color="#8a5a34"/>
      <stop offset="1" stop-color="#623c1f"/>
    </linearGradient>
    <marker id="redArrow" viewBox="0 0 10 10" refX="5" refY="5" markerWidth="7" markerHeight="7" orient="auto-start-reverse">
      <path d="M 0 0 L 10 5 L 0 10 z" fill="#d5271d"/>
    </marker>
    <marker id="blackArrow" viewBox="0 0 10 10" refX="5" refY="5" markerHeight="8" markerWidth="8" orient="auto-start-reverse">
      <path d="M 0 0 L 10 5 L 0 10 z" fill="#222"/>
    </marker>
    <filter id="softShadow" x="-20%" y="-20%" width="140%" height="140%">
      <feDropShadow dx="0" dy="2" stdDeviation="2" flood-color="#000" flood-opacity="0.15"/>
    </filter>
  </defs>

  <rect width="1280" height="900" fill="url(#sky)"/>

  <path d="M700 140 L1280 140 L1280 815 L610 815 C650 762 585 712 632 660 C680 608 566 566 604 508 C632 462 692 434 660 386 C634 344 700 306 672 258 C650 218 712 182 700 140 Z" fill="url(#rock)"/>
  <path d="M700 140 C712 182 650 218 672 258 C700 306 634 344 660 386 C692 434 632 462 604 508 C566 566 680 608 632 660 C585 712 650 762 610 815" fill="none" stroke="#8a6a48" stroke-width="3" opacity="0.5"/>
  <path d="M760 200 C745 260 790 300 760 360" fill="none" stroke="#8a6a48" stroke-width="2" opacity="0.35"/>
  <path d="M900 300 C880 400 930 460 895 560" fill="none" stroke="#8a6a48" stroke-width="2" opacity="0.3"/>

  <rect x="700" y="128" width="580" height="14" fill="url(#grass)"/>

  <rect x="0" y="815" width="1280" height="85" fill="url(#grass)"/>

  <g>
    <ellipse cx="925" cy="118" rx="72" ry="20" fill="#2c703a" opacity="0.25"/>
    <rect x="905" y="90" width="18" height="55" rx="6" fill="url(#wood)"/>
    <circle cx="905" cy="80" r="42" fill="url(#foliage)"/>
    <circle cx="945" cy="70" r="36" fill="url(#foliage)"/>
    <circle cx="945" cy="105" r="38" fill="url(#foliage)"/>
    <circle cx="900" cy="45" r="30" fill="url(#foliage)"/>
  </g>

  <g stroke="#1c2a33" stroke-width="5" stroke-linecap="round" fill="none">
    <circle cx="810" cy="78" r="13" fill="#1c2a33" stroke="none"/>
    <line x1="810" y1="93" x2="810" y2="128"/>
    <line x1="810" y1="103" x2="792" y2="118"/>
    <line x1="810" y1="103" x2="830" y2="118"/>
    <line x1="810" y1="128" x2="793" y2="150"/>
    <line x1="810" y1="128" x2="832" y2="150"/>
  </g>

  <g>
    <path d="M700 500 C640 470 570 478 512 500" fill="none" stroke="url(#wood)" stroke-width="14" stroke-linecap="round"/>
    <path d="M560 493 C540 478 545 460 565 452" fill="none" stroke="url(#wood)" stroke-width="8" stroke-linecap="round"/>
    <path d="M620 483 C610 470 615 458 630 452" fill="none" stroke="url(#wood)" stroke-width="6" stroke-linecap="round"/>
  </g>

  <rect x="60" y="60" width="340" height="200" rx="16" fill="#fff" stroke="#c7c7c7" stroke-width="2" filter="url(#softShadow)"/>
  <text x="90" y="103" font-family="Arial, Helvetica, sans-serif" font-size="27" font-weight="700" fill="#1c1c1c">equipment</text>
  <path d="M100 190 C120 150 150 210 185 175 S250 145 285 185" fill="none" stroke="#e08a2a" stroke-width="9" stroke-linecap="round"/>
  <path d="M100 190 C120 150 150 210 185 175 S250 145 285 185" fill="none" stroke="#f2a94a" stroke-width="3" stroke-linecap="round" opacity="0.7"/>
  <g transform="translate(295 155) rotate(-35)">
    <rect x="-6" y="30" width="20" height="52" rx="5" fill="#7a4530" stroke="#4f2c1c" stroke-width="2"/>
    <path d="M4 0 L28 40 L6 32 L-15 41 Z" fill="#d6d6d6" stroke="#8a8a8a" stroke-width="2"/>
    <line x1="-3" y1="33" x2="12" y2="33" stroke="#333" stroke-width="3"/>
  </g>
  <text x="90" y="233" font-family="Arial, Helvetica, sans-serif" font-size="22" fill="#1c1c1c">75 m rope + knife</text>

  <rect x="565" y="28" width="195" height="54" rx="10" fill="#fff" stroke="#c7c7c7" stroke-width="2" filter="url(#softShadow)"/>
  <path d="M760 55 L778 62 L760 69 Z" fill="#fff" stroke="#c7c7c7" stroke-width="2"/>
  <text x="583" y="63" font-family="Arial, Helvetica, sans-serif" font-size="22" font-weight="700" fill="#1c1c1c">you start here</text>

  <rect x="220" y="453" width="300" height="52" rx="10" fill="#fff" stroke="#c7c7c7" stroke-width="2" filter="url(#softShadow)"/>
  <path d="M520 479 L505 465 L505 493 Z" fill="#fff" stroke="#c7c7c7" stroke-width="2"/>
  <text x="240" y="487" font-family="Arial, Helvetica, sans-serif" font-size="20" font-weight="700" fill="#1c1c1c">branch, 50 m below top</text>

  <rect x="60" y="678" width="440" height="127" rx="14" fill="#fff" stroke="#c7c7c7" stroke-width="2" filter="url(#softShadow)"/>
  <text x="88" y="718" font-family="Arial, Helvetica, sans-serif" font-size="26" font-weight="700" fill="#1c1c1c">question setup</text>
  <text x="88" y="753" font-family="Arial, Helvetica, sans-serif" font-size="21" fill="#1c1c1c">Get from the top to the bottom</text>
  <text x="88" y="782" font-family="Arial, Helvetica, sans-serif" font-size="21" fill="#1c1c1c">using only the 75 m rope and the knife.</text>

  <line x1="700" y1="140" x2="1150" y2="140" stroke="#d5271d" stroke-width="1.5" stroke-dasharray="6 6" opacity="0.6"/>
  <line x1="700" y1="500" x2="1150" y2="500" stroke="#d5271d" stroke-width="1.5" stroke-dasharray="6 6" opacity="0.6"/>
  <line x1="1150" y1="145" x2="1150" y2="495" stroke="#d5271d" stroke-width="4" marker-start="url(#redArrow)" marker-end="url(#redArrow)"/>
  <rect x="1088" y="295" width="100" height="48" rx="10" fill="#fff" stroke="#d5271d" stroke-width="2.5"/>
  <text x="1108" y="327" font-family="Arial, Helvetica, sans-serif" font-size="27" font-weight="700" fill="#1c1c1c">50 m</text>

  <line x1="1150" y1="140" x2="1225" y2="140" stroke="#555" stroke-width="1.5" stroke-dasharray="6 6" opacity="0.6"/>
  <line x1="700" y1="815" x2="1225" y2="815" stroke="#555" stroke-width="1.5" stroke-dasharray="6 6" opacity="0.6"/>
  <line x1="1225" y1="145" x2="1225" y2="810" stroke="#222" stroke-width="4" marker-start="url(#blackArrow)" marker-end="url(#blackArrow)"/>
  <rect x="1158" y="453" width="112" height="48" rx="10" fill="#fff" stroke="#222" stroke-width="2"/>
  <text x="1178" y="485" font-family="Arial, Helvetica, sans-serif" font-size="27" font-weight="700" fill="#1c1c1c">100 m</text>
</svg>
